<?xml version="1.0" encoding="UTF-8" standalone="no"?>
<!DOCTYPE svg PUBLIC "-//W3C//DTD SVG 1.1//EN" "http://www.w3.org/Graphics/SVG/1.1/DTD/svg11.dtd">
<svg width="100%" height="100%" viewBox="0 0 2000 2000" version="1.1" xmlns="http://www.w3.org/2000/svg" xmlns:xlink="http://www.w3.org/1999/xlink" xml:space="preserve" xmlns:serif="http://www.serif.com/" style="fill-rule:evenodd;clip-rule:evenodd;stroke-linejoin:round;stroke-miterlimit:2;">
    <g transform="matrix(31.0873,0,0,31.0873,-14926.6,-23490.4)">
        <g transform="matrix(50,0,0,50,479.845,800.552)">
            <path d="M0.152,-0.244C0.152,-0.23 0.153,-0.216 0.154,-0.202C0.155,-0.187 0.157,-0.172 0.158,-0.158C0.16,-0.143 0.162,-0.128 0.163,-0.114C0.164,-0.099 0.165,-0.084 0.165,-0.07C0.165,-0.054 0.16,-0.041 0.148,-0.031C0.137,-0.021 0.123,-0.016 0.104,-0.016C0.095,-0.016 0.086,-0.019 0.078,-0.024C0.07,-0.03 0.066,-0.039 0.065,-0.051C0.063,-0.066 0.062,-0.083 0.06,-0.102C0.059,-0.121 0.058,-0.141 0.056,-0.161C0.055,-0.182 0.054,-0.202 0.053,-0.223C0.052,-0.244 0.051,-0.263 0.051,-0.282C0.05,-0.302 0.05,-0.319 0.049,-0.335C0.049,-0.351 0.049,-0.365 0.049,-0.376C0.049,-0.386 0.049,-0.395 0.051,-0.404C0.052,-0.413 0.055,-0.42 0.059,-0.427C0.063,-0.433 0.069,-0.438 0.076,-0.442C0.084,-0.446 0.094,-0.448 0.106,-0.448C0.115,-0.448 0.126,-0.445 0.138,-0.438C0.149,-0.432 0.162,-0.423 0.176,-0.411C0.189,-0.4 0.203,-0.387 0.219,-0.372C0.234,-0.357 0.25,-0.341 0.266,-0.325C0.282,-0.309 0.299,-0.292 0.316,-0.276C0.333,-0.259 0.351,-0.243 0.368,-0.228C0.376,-0.221 0.385,-0.213 0.395,-0.204C0.405,-0.195 0.415,-0.186 0.426,-0.178C0.436,-0.17 0.447,-0.163 0.457,-0.157C0.468,-0.152 0.478,-0.149 0.488,-0.149C0.497,-0.149 0.503,-0.153 0.506,-0.161C0.508,-0.169 0.51,-0.182 0.51,-0.199C0.51,-0.212 0.509,-0.228 0.507,-0.248C0.504,-0.267 0.501,-0.287 0.498,-0.309C0.494,-0.331 0.489,-0.353 0.483,-0.375C0.477,-0.397 0.47,-0.417 0.463,-0.435C0.461,-0.439 0.46,-0.443 0.458,-0.447C0.457,-0.45 0.456,-0.454 0.456,-0.459C0.456,-0.466 0.458,-0.473 0.463,-0.479C0.468,-0.485 0.474,-0.49 0.481,-0.494C0.488,-0.498 0.495,-0.501 0.502,-0.503C0.51,-0.505 0.516,-0.506 0.521,-0.506C0.532,-0.506 0.541,-0.5 0.55,-0.489C0.558,-0.477 0.566,-0.462 0.572,-0.444C0.578,-0.425 0.584,-0.405 0.588,-0.382C0.592,-0.359 0.596,-0.336 0.598,-0.313C0.601,-0.289 0.603,-0.267 0.604,-0.246C0.605,-0.225 0.606,-0.208 0.606,-0.194C0.606,-0.167 0.605,-0.144 0.603,-0.124C0.601,-0.104 0.596,-0.087 0.59,-0.074C0.583,-0.06 0.573,-0.05 0.561,-0.043C0.548,-0.036 0.531,-0.032 0.51,-0.032C0.493,-0.032 0.475,-0.036 0.457,-0.043C0.438,-0.05 0.419,-0.059 0.4,-0.071C0.381,-0.083 0.362,-0.097 0.343,-0.112C0.323,-0.127 0.304,-0.143 0.286,-0.16C0.267,-0.176 0.249,-0.193 0.232,-0.209C0.214,-0.226 0.198,-0.242 0.183,-0.256C0.177,-0.262 0.171,-0.265 0.166,-0.265C0.161,-0.265 0.158,-0.263 0.156,-0.26C0.153,-0.256 0.152,-0.251 0.152,-0.244Z" style="fill-rule:nonzero;"/>
        </g>
        <g transform="matrix(50,0,0,50,511.046,799.502)">
            <path d="M0.48,-0.462C0.48,-0.449 0.476,-0.437 0.468,-0.426C0.459,-0.415 0.449,-0.404 0.436,-0.394C0.424,-0.384 0.41,-0.374 0.396,-0.364C0.381,-0.354 0.367,-0.344 0.355,-0.334C0.342,-0.324 0.332,-0.314 0.323,-0.303C0.315,-0.293 0.311,-0.282 0.311,-0.27C0.311,-0.26 0.318,-0.251 0.332,-0.242C0.345,-0.233 0.365,-0.223 0.391,-0.214C0.416,-0.205 0.447,-0.196 0.484,-0.186C0.52,-0.177 0.561,-0.167 0.607,-0.156C0.63,-0.15 0.641,-0.138 0.641,-0.121C0.641,-0.115 0.64,-0.108 0.636,-0.102C0.633,-0.096 0.629,-0.09 0.624,-0.086C0.619,-0.081 0.613,-0.077 0.606,-0.074C0.6,-0.071 0.593,-0.07 0.586,-0.07C0.57,-0.07 0.551,-0.072 0.531,-0.077C0.51,-0.082 0.488,-0.088 0.466,-0.095C0.444,-0.102 0.422,-0.11 0.4,-0.119C0.378,-0.128 0.357,-0.135 0.338,-0.143C0.318,-0.15 0.301,-0.156 0.286,-0.161C0.272,-0.166 0.26,-0.168 0.253,-0.168C0.247,-0.168 0.23,-0.169 0.225,-0.163C0.22,-0.158 0.217,-0.15 0.212,-0.14C0.208,-0.131 0.209,-0.118 0.206,-0.105C0.203,-0.092 0.205,-0.077 0.204,-0.062C0.202,-0.045 0.196,-0.032 0.186,-0.024C0.175,-0.015 0.161,-0.011 0.142,-0.011C0.123,-0.011 0.112,-0.02 0.109,-0.038C0.104,-0.065 0.098,-0.093 0.091,-0.122C0.084,-0.15 0.076,-0.178 0.068,-0.207C0.06,-0.235 0.051,-0.263 0.041,-0.291C0.032,-0.318 0.022,-0.345 0.011,-0.37C0.009,-0.376 0.007,-0.381 0.006,-0.385C0.004,-0.39 0.004,-0.395 0.004,-0.4C0.004,-0.404 0.005,-0.408 0.008,-0.412C0.01,-0.416 0.014,-0.419 0.019,-0.422C0.023,-0.425 0.028,-0.427 0.034,-0.429C0.04,-0.43 0.047,-0.431 0.053,-0.431C0.067,-0.431 0.077,-0.428 0.085,-0.423C0.093,-0.417 0.101,-0.409 0.109,-0.398C0.113,-0.393 0.117,-0.386 0.12,-0.377C0.124,-0.369 0.127,-0.359 0.13,-0.35C0.134,-0.34 0.137,-0.33 0.14,-0.32C0.143,-0.31 0.147,-0.301 0.15,-0.293C0.153,-0.285 0.156,-0.279 0.159,-0.274C0.162,-0.269 0.165,-0.266 0.168,-0.266C0.171,-0.266 0.173,-0.267 0.175,-0.27C0.176,-0.272 0.179,-0.275 0.181,-0.28C0.198,-0.315 0.217,-0.347 0.237,-0.376C0.257,-0.405 0.278,-0.43 0.299,-0.451C0.32,-0.472 0.341,-0.488 0.363,-0.499C0.384,-0.51 0.404,-0.516 0.424,-0.516C0.432,-0.516 0.439,-0.515 0.446,-0.512C0.453,-0.509 0.459,-0.505 0.464,-0.5C0.469,-0.496 0.473,-0.49 0.476,-0.483C0.479,-0.476 0.48,-0.469 0.48,-0.462Z" style="fill-rule:nonzero;"/>
        </g>
    </g>
</svg>
